<svg xmlns="http://www.w3.org/2000/svg" viewBox="0 0 1024 1024" role="img" aria-label="JpWords app icon">
  <rect width="1024" height="1024" rx="224" fill="#ffffff"/>
  <g fill="none" stroke="#e7352c" stroke-width="34" stroke-linecap="round">
    <path d="M512 110v88"/>
    <path d="M330 166l44 76"/>
    <path d="M694 166l-44 76"/>
    <path d="M214 310l76 44"/>
    <path d="M810 310l-76 44"/>
  </g>
  <path d="M230 552a282 282 0 0 1 564 0Z" fill="#e7352c"/>
  <path d="M226 626l286 20v196l-286-20Z" fill="#dba632"/>
  <path d="M512 646l286-20v196l-286 20Z" fill="#dba632"/>
  <path d="M250 654l250 12v120l-250-12Z" fill="#f4d36f"/>
  <path d="M524 666l250-12v120l-250 12Z" fill="#f4d36f"/>
  <path d="M512 650v200" stroke="#b78420" stroke-width="18" stroke-linecap="round"/>
  <text x="512" y="604" text-anchor="middle" font-family="Yu Gothic UI, Meiryo, Noto Sans JP, sans-serif" font-size="300" font-weight="900" fill="#183126">&#12354;</text>
</svg>
